<svg width="54" height="44" viewBox="0 0 54 44" fill="none" xmlns="http://www.w3.org/2000/svg">
<g opacity="1">
<path d="M28.4275 20.8473L28.3833 25.9441C30.0516 25.6167 31.0681 24.6344 31.0792 23.3138C31.0681 22.0696 30.14 21.3821 28.4275 20.8473Z" fill="#009393"/>
<path d="M23.5108 13.5021C23.4887 14.7572 24.4831 15.4666 25.8641 15.9359L25.9083 11.1119C24.3505 11.4284 23.5108 12.3343 23.5108 13.5021Z" fill="#009393"/>
<path fill-rule="evenodd" clip-rule="evenodd" d="M11.7605 0H42.864C43.6062 0 44.2918 0.391672 44.6619 1.0271L53.7236 16.5842C54.1935 17.391 54.0539 18.4093 53.3836 19.0635L28.441 43.4085C27.6331 44.1972 26.3332 44.1972 25.5253 43.4085L0.616386 19.0964C-0.0694826 18.427 -0.197915 17.379 0.306439 16.5672L9.99269 0.977181C10.3699 0.370025 11.0393 0 11.7605 0ZM28.317 32.5035H25.7095L25.7316 29.9714C21.0469 29.5676 18.119 27.101 18.0085 22.6917H22.6379C22.7594 24.5144 23.9748 25.6058 25.7758 25.9441L25.831 20.1706L24.7703 19.9087C20.9474 19.0028 18.5941 17.1147 18.6051 13.8186C18.583 10.0969 21.6325 7.52121 25.9525 7.10648L25.9746 4.56351H28.5821L28.56 7.12831C32.8138 7.5867 35.5429 10.1733 35.5981 13.7859H31.0129C30.8803 12.4107 29.9853 11.483 28.5159 11.1447L28.4717 16.6017L29.1235 16.7545C33.0569 17.6276 35.8964 19.6031 35.9075 23.3248C35.8964 27.1119 33.1232 29.6222 28.3391 29.9823L28.317 32.5035Z" fill="#009393"/>
</g>
</svg>
